<?xml version="1.0" standalone="no"?>
<!DOCTYPE svg PUBLIC "-//W3C//DTD SVG 20010904//EN"
 "http://www.w3.org/TR/2001/REC-SVG-20010904/DTD/svg10.dtd">
<svg version="1.0" xmlns="http://www.w3.org/2000/svg"
 width="879.000000pt" height="515.000000pt" viewBox="0 0 879.000000 515.000000"
 preserveAspectRatio="xMidYMid meet">

<g transform="translate(0.000000,515.000000) scale(0.100000,-0.100000)"
fill="#000000" stroke="none">
<path d="M4874 3289 c-10 -12 -31 -27 -46 -35 -16 -8 -28 -21 -28 -29 0 -9
-11 -20 -24 -26 -13 -6 -26 -23 -29 -38 -4 -17 -15 -30 -36 -38 l-31 -11 0
-93 c0 -72 -4 -96 -17 -111 -15 -16 -15 -20 0 -36 11 -12 13 -22 6 -35 -7 -13
-7 -22 1 -32 18 -22 8 -60 -17 -63 -13 -2 -23 -10 -23 -19 0 -9 6 -13 13 -10
8 3 20 1 28 -4 12 -8 11 -12 -3 -23 -23 -17 -23 -22 2 -29 24 -6 27 -42 4 -55
-15 -8 -15 -12 2 -37 14 -21 15 -31 6 -45 -9 -14 -8 -21 3 -30 9 -7 15 -36 17
-78 3 -61 5 -67 28 -72 18 -4 26 -14 28 -33 3 -21 11 -29 35 -35 20 -5 33 -16
37 -30 3 -12 21 -33 40 -47 31 -23 41 -25 90 -19 44 5 59 3 69 -10 11 -13 15
-14 27 -1 11 10 21 12 38 5 14 -5 27 -5 33 1 5 5 29 15 54 22 50 14 88 62 140
176 28 61 29 65 12 83 -17 19 -16 20 7 38 l25 19 -24 25 c-19 20 -22 28 -12
40 10 11 7 19 -14 40 -30 30 -35 32 -35 12 0 -8 -9 -18 -21 -21 -19 -6 -19 -8
-5 -24 24 -26 21 -103 -4 -119 -11 -7 -20 -21 -20 -33 0 -12 -12 -27 -30 -37
-28 -16 -30 -21 -30 -74 0 -59 -6 -66 -40 -48 -13 7 -21 6 -30 -5 -17 -21 -37
-19 -51 6 -9 17 -17 20 -42 16 -18 -3 -40 -8 -49 -12 -12 -5 -21 2 -33 25 -12
24 -21 30 -36 25 -15 -5 -22 1 -34 29 -8 19 -15 51 -15 70 0 28 -3 33 -19 29
-22 -6 -30 11 -38 89 -5 46 -9 58 -22 56 -10 -2 -17 5 -19 20 -2 15 2 22 12
22 9 0 16 8 16 19 0 12 -7 18 -17 17 -15 -1 -18 9 -21 62 -2 44 1 62 10 62 9
0 9 3 0 12 -19 19 -14 56 9 63 17 6 20 14 17 53 -3 42 -6 47 -28 50 -36 5 -44
17 -25 36 13 12 21 14 30 6 7 -6 25 -8 39 -4 32 8 78 84 64 107 -11 21 -1 26
69 33 37 4 68 2 81 -5 14 -7 23 -8 27 -1 12 20 33 10 44 -21 9 -26 14 -30 35
-25 19 5 26 1 31 -15 5 -16 10 -18 21 -8 7 6 20 9 29 5 21 -8 7 -36 -19 -37
-18 -1 -18 -2 7 -12 29 -12 37 -44 12 -53 -21 -8 -19 -21 5 -27 15 -4 20 -14
20 -40 0 -32 3 -35 33 -40 17 -2 35 -3 39 0 13 7 20 72 11 100 -5 16 -6 71 -3
123 4 52 4 102 0 109 -6 11 -31 15 -101 15 -92 1 -94 1 -95 25 -2 44 -37 61
-124 61 -65 0 -80 -3 -96 -21z m-14 -54 c0 -8 -7 -15 -16 -15 -14 0 -14 3 -4
15 7 8 14 15 16 15 2 0 4 -7 4 -15z m65 -25 c-5 -8 -11 -8 -21 1 -12 10 -12
14 -2 20 16 10 33 -5 23 -21z m-127 -68 c3 -9 -2 -13 -14 -10 -9 1 -19 9 -22
16 -3 9 2 13 14 10 9 -1 19 -9 22 -16z m332 3 c0 -8 -7 -15 -15 -15 -8 0 -15
7 -15 15 0 8 7 15 15 15 8 0 15 -7 15 -15z m-397 -80 c-3 -8 -9 -15 -14 -15
-10 0 -12 24 -3 33 11 11 24 -3 17 -18z m32 -595 c3 -5 -1 -10 -9 -10 -9 0
-16 5 -16 10 0 6 4 10 9 10 6 0 13 -4 16 -10z m505 -55 c0 -8 -7 -15 -15 -15
-16 0 -20 12 -8 23 11 12 23 8 23 -8z m-450 -99 c0 -8 -7 -16 -15 -20 -10 -4
-15 1 -15 14 0 11 7 20 15 20 8 0 15 -6 15 -14z"/>
<path d="M6591 3234 c-38 -48 -22 -174 18 -150 6 4 17 -7 26 -24 19 -36 48
-37 53 -2 3 23 26 30 37 12 5 -8 11 -7 21 1 17 14 18 64 2 126 -10 40 -12 44
-19 25 -12 -31 -36 -27 -54 8 -20 38 -56 40 -84 4z m29 -80 c0 -22 -2 -25 -15
-14 -8 7 -15 19 -15 26 0 8 7 14 15 14 10 0 15 -10 15 -26z"/>
<path d="M440 3130 c0 -28 -27 -36 -49 -15 -18 16 -20 15 -25 -3 -9 -27 -82
-39 -105 -17 -11 9 -21 11 -27 6 -5 -5 -25 -11 -44 -13 l-35 -3 -3 -225 c-2
-218 4 -280 30 -280 18 0 53 23 91 58 36 35 39 36 132 40 66 3 100 1 110 -8 8
-7 25 -10 40 -6 24 6 25 5 25 -43 0 -56 19 -81 38 -51 19 31 39 13 46 -41 6
-47 8 -49 37 -49 24 0 30 -4 25 -16 -3 -9 -6 -18 -6 -20 0 -2 -11 -2 -24 2
-13 3 -27 1 -31 -6 -10 -16 14 -40 41 -40 39 0 27 -26 -18 -40 -55 -18 -54
-17 -34 -39 17 -19 17 -21 -7 -45 -14 -14 -29 -37 -34 -53 -7 -21 -19 -30 -46
-36 -34 -8 -37 -12 -34 -40 2 -31 0 -32 -38 -35 -46 -4 -175 -5 -223 -2 -53 3
-65 31 -61 152 1 57 -1 122 -6 146 -7 42 -8 42 -51 42 -36 0 -44 -4 -49 -22
-4 -13 -19 -33 -33 -45 l-27 -23 22 -21 22 -22 -24 -19 c-26 -20 -40 -66 -30
-99 4 -11 22 -27 40 -35 29 -12 34 -20 37 -51 3 -31 7 -38 32 -44 16 -5 47
-22 69 -40 50 -41 87 -48 228 -49 121 0 133 4 141 45 3 15 10 19 31 17 29 -3
87 31 87 51 0 7 7 25 16 42 8 17 12 40 9 54 -4 17 1 31 18 50 39 42 48 118 30
256 -8 57 -10 60 -36 61 -36 1 -44 11 -29 34 10 16 8 25 -8 52 -11 18 -20 38
-20 44 0 7 -20 34 -45 60 -37 40 -45 45 -45 28 0 -11 -3 -24 -7 -27 -9 -10
-33 12 -27 26 6 17 -65 37 -128 37 -29 0 -76 5 -104 12 l-51 12 1 59 c2 54 4
61 26 69 l25 9 -25 19 c-16 12 -21 22 -15 28 19 18 101 32 132 23 16 -5 71
-12 121 -16 76 -6 96 -4 117 9 20 13 23 21 18 53 -8 57 -21 66 -86 58 -43 -6
-58 -12 -62 -26 -8 -23 -41 -43 -50 -29 -3 5 -3 21 1 35 5 21 3 25 -15 25 -14
0 -21 -6 -21 -20z m-212 -118 c2 -7 -6 -12 -17 -12 -21 0 -27 11 -14 24 9 9
26 2 31 -12z m2 -92 c0 -5 -9 -10 -20 -10 -11 0 -20 5 -20 10 0 6 9 10 20 10
11 0 20 -4 20 -10z m-8 -92 c-9 -9 -15 -9 -24 0 -10 10 -10 15 2 22 20 12 38
-6 22 -22z m126 -75 c3 -20 -1 -23 -26 -23 -31 0 -43 14 -34 38 8 23 57 10 60
-15z m162 2 c0 -8 -7 -15 -15 -15 -16 0 -20 12 -8 23 11 12 23 8 23 -8z m150
-90 c0 -8 -7 -15 -15 -15 -16 0 -20 12 -8 23 11 12 23 8 23 -8z m-422 -22 c-5
-25 -28 -28 -28 -4 0 12 6 21 16 21 9 0 14 -7 12 -17z m-88 -233 c0 -5 -4 -10
-10 -10 -5 0 -10 5 -10 10 0 6 5 10 10 10 6 0 10 -4 10 -10z m-55 -185 c0 -10
-6 -20 -12 -22 -8 -3 -13 5 -13 22 0 17 5 25 13 23 6 -3 12 -13 12 -23z m85
-15 c0 -5 -4 -10 -10 -10 -5 0 -10 5 -10 10 0 6 5 10 10 10 6 0 10 -4 10 -10z
m420 -80 c0 -5 -4 -10 -10 -10 -5 0 -10 5 -10 10 0 6 5 10 10 10 6 0 10 -4 10
-10z m-265 -70 c0 -22 -29 -18 -33 3 -3 14 1 18 15 15 10 -2 18 -10 18 -18z
m-71 -9 c3 -5 0 -11 -8 -14 -15 -6 -26 1 -26 15 0 11 27 10 34 -1z m196 -1 c0
-5 -4 -10 -10 -10 -5 0 -10 5 -10 10 0 6 5 10 10 10 6 0 10 -4 10 -10z"/>
<path d="M1475 3136 c-91 -37 -145 -68 -163 -93 -23 -33 -62 -120 -62 -139 0
-7 -9 -28 -20 -47 -29 -49 -35 -140 -20 -329 9 -127 16 -170 31 -194 10 -17
16 -34 13 -37 -3 -3 1 -16 10 -29 9 -12 16 -32 16 -43 0 -11 9 -26 20 -33 11
-6 26 -27 34 -46 8 -19 23 -37 35 -41 11 -3 26 -18 33 -32 15 -31 89 -73 127
-73 14 0 43 -5 64 -11 30 -8 44 -7 69 5 17 9 40 16 51 16 23 0 87 37 87 50 0
5 15 26 32 46 23 25 44 72 70 147 33 100 35 112 22 133 -14 20 -13 23 6 37
l22 15 -21 7 c-29 9 -27 43 4 57 28 12 30 30 19 149 -6 58 -9 66 -25 62 -14
-4 -19 0 -19 17 0 17 4 21 20 17 13 -3 20 0 20 8 0 8 -9 17 -20 20 -13 4 -20
15 -20 33 -1 15 -7 38 -15 52 -8 14 -14 36 -15 50 0 16 -8 29 -22 35 -17 7
-23 18 -23 40 0 25 -5 32 -35 41 -28 10 -35 17 -35 38 0 22 -9 31 -59 56 -50
25 -70 30 -130 29 -39 0 -84 -6 -101 -13z m115 -107 c8 -35 36 -36 48 -2 l9
28 13 -27 c7 -16 19 -28 26 -28 8 0 21 -12 31 -27 9 -16 28 -40 41 -55 18 -20
26 -43 31 -92 5 -45 13 -72 28 -88 26 -29 37 -103 17 -119 -13 -10 -12 -14 1
-29 18 -20 19 -42 3 -58 -9 -9 -9 -15 0 -24 18 -18 14 -46 -7 -53 -17 -5 -20
-18 -25 -93 -3 -48 -6 -97 -7 -110 -1 -17 -5 -21 -20 -17 -15 5 -19 1 -19 -20
0 -42 -17 -62 -57 -70 -21 -3 -48 -13 -60 -21 -14 -8 -23 -10 -23 -4 0 14 -33
27 -102 40 -42 8 -59 16 -63 31 -4 11 -18 24 -31 29 -26 10 -27 12 -44 78 -6
24 -22 53 -36 64 -28 25 -32 56 -8 65 15 5 15 7 2 17 -9 7 -18 37 -23 74 -7
59 -6 64 14 69 26 7 27 25 1 48 -11 10 -20 22 -20 27 0 4 9 8 20 8 18 0 20 7
20 65 0 58 -2 65 -20 65 -17 0 -20 7 -20 40 0 42 9 50 30 25 14 -17 70 -21 70
-5 0 6 -7 10 -15 10 -19 0 -19 14 0 30 8 7 19 27 23 44 6 22 19 36 44 48 20
10 39 26 43 37 3 12 17 21 33 24 40 6 46 3 52 -24z m-220 11 c0 -5 -4 -10 -10
-10 -5 0 -10 5 -10 10 0 6 5 10 10 10 6 0 10 -4 10 -10z m20 -75 c0 -8 -7 -15
-15 -15 -16 0 -20 12 -8 23 11 12 23 8 23 -8z m380 -10 c0 -8 -4 -15 -10 -15
-5 0 -10 7 -10 15 0 8 5 15 10 15 6 0 10 -7 10 -15z m-440 -230 c0 -8 -4 -15
-10 -15 -5 0 -10 7 -10 15 0 8 5 15 10 15 6 0 10 -7 10 -15z m595 -155 c3 -5
1 -10 -4 -10 -6 0 -11 5 -11 10 0 6 2 10 4 10 3 0 8 -4 11 -10z"/>
<path d="M1108 3120 c-32 -4 -76 -19 -102 -34 -40 -23 -45 -30 -40 -51 4 -15
2 -25 -5 -25 -6 0 -11 6 -11 13 -1 22 -40 -35 -40 -59 0 -13 -9 -28 -19 -34
-22 -11 -43 -93 -34 -129 4 -15 -1 -29 -17 -43 -23 -21 -23 -22 -17 -234 l5
-213 32 -46 c17 -25 36 -60 42 -78 6 -17 20 -38 30 -45 10 -7 18 -22 18 -34 0
-27 72 -98 99 -98 12 0 38 -9 58 -20 61 -32 63 -30 63 65 l0 85 -31 0 c-36 0
-69 16 -88 42 -7 11 -23 23 -36 28 -19 7 -24 19 -30 70 -7 58 -19 83 -47 93
-10 3 -10 9 -1 25 10 16 9 23 -3 33 -13 11 -15 33 -13 129 2 63 0 121 -4 128
-13 20 1 34 24 22 17 -9 19 -7 19 18 0 21 -6 31 -20 35 -16 4 -20 14 -20 51 0
49 15 61 29 24 7 -21 9 -19 21 16 6 20 18 40 26 43 8 3 19 23 24 44 6 21 15
39 20 39 5 0 7 7 4 15 -4 8 -3 23 1 32 6 16 8 15 25 -7 15 -19 20 -21 20 -8 0
24 28 48 56 48 21 0 24 5 24 35 0 19 -1 34 -2 34 -2 -1 -29 -5 -60 -9z m-108
-185 c0 -8 -7 -15 -15 -15 -8 0 -15 7 -15 15 0 8 7 15 15 15 8 0 15 -7 15 -15z"/>
<path d="M1990 3099 c0 -17 8 -42 19 -55 16 -21 20 -22 31 -9 18 21 38 19 45
-6 5 -16 10 -18 20 -9 19 16 32 6 40 -31 6 -26 11 -30 31 -26 13 2 24 4 24 3
0 -28 34 -178 48 -213 37 -90 47 -133 35 -152 -7 -11 -7 -37 -2 -76 8 -55 7
-61 -14 -79 l-22 -18 23 -15 c27 -19 29 -33 3 -33 -14 0 -21 -9 -26 -32 -13
-71 -30 -118 -41 -118 -6 0 -19 -20 -28 -44 -19 -50 -31 -56 -123 -56 l-63 0
0 -80 0 -81 38 6 c51 9 122 35 154 57 32 22 108 151 108 183 0 13 8 30 18 37
37 27 64 186 35 209 -11 10 -9 17 11 44 21 27 22 32 8 31 -11 -1 -18 7 -20 22
-4 26 13 29 27 5 9 -15 10 -14 11 10 0 18 -9 36 -22 47 -23 19 -23 19 -3 34
20 15 20 15 1 29 -12 9 -20 28 -22 53 -3 72 -30 152 -63 189 -17 20 -31 41
-31 47 0 6 -16 28 -35 49 -19 22 -35 45 -35 53 0 18 -32 29 -82 29 -21 0 -43
6 -49 13 -6 8 -20 14 -30 14 -15 0 -19 -7 -19 -31z"/>
<path d="M3340 3069 c-28 -15 -34 -24 -32 -45 2 -14 -2 -32 -9 -40 -9 -12 -9
-20 1 -39 15 -29 5 -84 -13 -66 -18 18 -22 13 -24 -31 -2 -22 -10 -49 -19 -59
-14 -16 -13 -18 7 -33 19 -13 21 -19 11 -40 -6 -13 -20 -27 -31 -31 -22 -7
-26 -31 -22 -122 2 -32 -2 -44 -17 -52 -25 -13 -42 -81 -42 -170 0 -67 -14
-101 -41 -101 -19 0 -8 -19 14 -22 14 -2 22 -10 22 -23 0 -11 -10 -24 -22 -30
-13 -5 -23 -18 -23 -28 0 -37 -32 -127 -49 -139 -10 -7 -21 -23 -25 -35 -7
-23 -7 -23 106 -22 110 0 183 14 183 34 0 6 -12 11 -27 13 -22 3 -28 9 -28 27
0 16 -11 29 -33 43 -30 17 -35 26 -40 73 -9 75 -8 141 2 158 5 8 19 12 35 9
15 -3 31 0 37 8 13 16 288 8 305 -10 16 -17 62 -145 70 -193 5 -34 3 -44 -10
-49 -9 -3 -22 -1 -30 5 -11 9 -15 5 -20 -24 -8 -39 -28 -54 -50 -36 -17 14
-41 -11 -32 -34 4 -13 31 -15 163 -15 167 0 204 8 168 35 -12 10 -30 13 -47
10 -25 -6 -27 -3 -34 30 -4 21 -14 39 -23 42 -9 3 -22 7 -30 9 -11 4 -10 7 3
17 17 12 14 21 -38 113 -31 56 -56 108 -56 117 0 9 -4 19 -10 22 -5 3 -10 24
-10 46 0 40 -1 40 -29 34 -18 -4 -32 -2 -36 5 -10 17 -25 -8 -25 -42 0 -35
-19 -46 -38 -22 -8 11 -16 15 -19 8 -2 -6 -10 -20 -18 -30 -15 -19 -15 -19
-30 0 -8 11 -15 28 -15 38 0 25 -18 22 -22 -4 -4 -31 -26 -34 -37 -5 -6 14
-23 29 -40 35 -39 14 -47 33 -27 65 15 22 15 26 1 37 -20 17 -19 23 11 59 25
30 25 31 5 31 -12 0 -24 7 -27 15 -8 20 15 47 34 40 20 -7 32 12 32 52 0 44
24 65 69 61 34 -3 36 -5 36 -41 0 -31 3 -37 21 -37 12 0 32 -9 45 -19 19 -16
22 -23 13 -37 -14 -23 4 -102 28 -126 22 -22 58 -24 58 -3 0 9 -9 15 -25 15
-23 0 -25 4 -25 47 0 25 -8 86 -17 134 -16 82 -18 88 -42 91 -24 3 -26 8 -32
63 -4 43 -2 65 8 76 7 8 13 24 13 35 0 29 -50 124 -63 123 -7 -1 -28 -10 -47
-20z m50 -59 c0 -25 -4 -30 -25 -30 -20 0 -25 5 -25 23 0 28 7 37 32 37 13 0
18 -8 18 -30z m-10 -85 c0 -8 -7 -15 -15 -15 -16 0 -20 12 -8 23 11 12 23 8
23 -8z m-55 -90 c0 -10 -6 -20 -12 -22 -8 -3 -13 5 -13 22 0 17 5 25 13 23 6
-3 12 -13 12 -23z m63 -17 c-5 -32 -28 -35 -28 -4 0 17 5 26 16 26 10 0 14 -7
12 -22z m87 -68 c7 -12 -12 -50 -26 -50 -13 0 -22 27 -15 45 6 17 32 20 41 5z
m-267 -312 c-2 -13 -10 -23 -18 -23 -8 0 -16 10 -18 23 -3 17 2 22 18 22 16 0
21 -5 18 -22z m76 -81 c-7 -19 -20 -22 -29 -7 -9 15 16 43 27 32 5 -5 6 -16 2
-25z m280 24 c10 -16 -5 -41 -25 -41 -19 0 -27 29 -12 43 9 10 31 9 37 -2z
m-396 -294 c3 -12 -4 -17 -22 -17 -27 0 -37 24 -13 33 19 8 32 2 35 -16z m462
-66 c0 -12 -20 -25 -27 -18 -7 7 6 27 18 27 5 0 9 -4 9 -9z m-392 -13 c-7 -19
-38 -22 -38 -4 0 10 9 16 21 16 12 0 19 -5 17 -12z"/>
<path d="M6139 3000 c-6 -16 -13 -30 -16 -30 -3 0 -19 12 -36 26 -29 25 -36
26 -97 20 -36 -3 -75 -9 -87 -12 l-23 -6 25 -20 c14 -11 25 -27 25 -36 1 -15
2 -15 11 1 13 23 36 22 44 -2 3 -12 19 -21 40 -25 18 -4 44 -15 57 -25 20 -17
22 -26 19 -94 -2 -69 -1 -75 19 -80 28 -7 21 -31 -11 -35 -48 -6 -53 -11 -34
-31 32 -36 -7 -83 -49 -59 -11 6 -51 6 -109 0 -51 -5 -109 -7 -131 -4 -21 2
-56 -1 -78 -9 -33 -11 -41 -10 -54 3 -11 11 -13 21 -5 41 9 24 8 27 -9 27 -27
0 -70 21 -70 34 0 6 -5 3 -11 -6 -5 -10 -21 -18 -35 -18 -25 0 -26 -1 -19 -52
4 -29 8 -53 9 -53 0 0 10 -5 21 -11 29 -16 31 -42 3 -53 -16 -7 -18 -10 -6
-10 27 -1 31 -36 8 -73 -31 -52 -27 -217 6 -204 8 3 18 -3 24 -13 11 -21 -1
-36 -35 -43 -17 -3 -20 -11 -17 -45 1 -25 -3 -45 -12 -52 -8 -7 -12 -20 -9
-30 3 -12 -5 -26 -26 -40 -19 -14 -31 -31 -31 -45 0 -12 -5 -27 -11 -33 -29
-29 3 -34 202 -31 l200 3 -3 39 c-3 33 -9 42 -36 58 -28 15 -39 17 -65 8 -45
-16 -123 8 -119 36 5 30 4 34 -12 119 -8 44 -15 133 -16 197 l0 116 28 6 c63
13 272 26 342 21 124 -10 140 -14 140 -35 0 -10 14 -32 32 -49 27 -25 32 -37
33 -83 2 -35 -2 -59 -12 -70 -13 -14 -12 -19 6 -37 25 -25 26 -37 4 -49 -16
-9 -16 -11 0 -27 26 -25 21 -45 -13 -51 -23 -5 -30 -12 -30 -30 0 -30 -36 -54
-82 -54 -43 0 -68 -27 -68 -75 l0 -30 88 -4 c135 -6 240 -7 246 0 3 3 0 20 -6
37 -9 24 -10 37 -2 49 16 25 -32 103 -64 103 -28 0 -39 26 -23 52 10 16 10 23
-3 36 -12 14 -12 21 -1 41 10 20 10 29 1 45 -11 18 -13 67 -6 161 2 29 -11
255 -16 283 -4 19 -2 38 4 44 8 8 7 19 -3 38 -12 23 -12 30 -1 46 10 13 11 23
3 35 -16 25 3 43 74 68 58 22 60 24 57 54 -3 32 -4 32 -63 35 -33 2 -64 7 -69
13 -17 16 -27 10 -37 -21z m-69 -55 c0 -9 -9 -15 -25 -15 -24 0 -32 10 -18 23
12 13 43 7 43 -8z m-440 -334 c0 -22 -29 -36 -43 -22 -15 15 0 41 23 41 13 0
20 -7 20 -19z m500 9 c0 -5 -2 -10 -4 -10 -3 0 -8 5 -11 10 -3 6 -1 10 4 10 6
0 11 -4 11 -10z m-52 -97 c-2 -22 -8 -28 -28 -28 -16 0 -26 6 -28 19 -4 21 13
36 41 36 14 0 18 -6 15 -27z m-370 -5 c-2 -15 -11 -24 -25 -26 -19 -3 -23 1
-23 22 0 21 5 26 26 26 21 0 25 -4 22 -22z m77 -8 c0 -29 -32 -41 -41 -16 -9
24 4 48 23 44 12 -2 18 -12 18 -28z m65 15 c0 -8 -7 -15 -15 -15 -8 0 -15 7
-15 15 0 8 7 15 15 15 8 0 15 -7 15 -15z m84 6 c3 -4 -1 -17 -9 -27 -10 -15
-16 -16 -26 -7 -6 6 -9 19 -6 27 7 17 32 22 41 7z m-306 -19 c2 -7 -6 -12 -17
-12 -21 0 -27 11 -14 24 9 9 26 2 31 -12z m356 3 c3 -9 0 -15 -9 -15 -8 0 -15
7 -15 15 0 8 4 15 9 15 5 0 11 -7 15 -15z m260 -474 c9 -14 -4 -41 -19 -41
-18 0 -28 17 -21 35 6 17 32 20 40 6z m-684 -35 c0 -3 -4 -8 -10 -11 -5 -3
-10 -1 -10 4 0 6 5 11 10 11 6 0 10 -2 10 -4z m160 -106 c0 -5 -7 -10 -15 -10
-8 0 -15 5 -15 10 0 6 7 10 15 10 8 0 15 -4 15 -10z"/>
<path d="M5456 3013 c-54 -4 -58 -6 -52 -26 3 -12 6 -32 6 -45 0 -18 9 -27 39
-39 37 -15 39 -18 43 -64 1 -27 0 -62 -3 -79 -8 -35 -1 -42 52 -45 l40 -3 -3
86 -3 86 30 15 c17 8 31 18 33 22 2 4 13 20 24 34 19 24 22 25 43 11 21 -14
24 -13 41 5 9 10 14 22 11 26 -19 18 -147 25 -301 16z m168 -68 c-4 -8 -10
-15 -15 -15 -5 0 -9 7 -9 15 0 8 7 15 15 15 9 0 12 -6 9 -15z m-86 -172 c-5
-25 -28 -28 -28 -4 0 12 6 21 16 21 9 0 14 -7 12 -17z"/>
<path d="M8316 3013 c-4 -5 -104 -10 -221 -13 -117 -3 -217 -8 -220 -12 -4 -4
-4 -27 -1 -51 6 -40 10 -45 44 -56 21 -7 47 -11 57 -9 14 2 21 -3 23 -19 3
-19 -1 -23 -22 -23 -35 0 -34 -26 1 -37 24 -8 27 -15 30 -63 2 -37 -2 -59 -12
-70 -12 -14 -12 -23 1 -73 15 -59 12 -97 -8 -97 -6 0 -5 -8 4 -17 8 -10 18
-39 21 -65 6 -41 3 -51 -15 -68 -17 -16 -19 -23 -10 -32 7 -7 12 -27 12 -44 0
-18 5 -36 10 -39 6 -3 10 -17 10 -30 0 -16 -7 -25 -25 -29 -27 -7 -34 -26 -10
-26 10 0 15 -10 15 -30 0 -17 5 -39 12 -49 15 -25 -6 -53 -36 -50 -54 6 -96
-40 -96 -106 0 -22 4 -25 38 -27 20 0 48 -3 62 -5 14 -2 69 -4 122 -6 92 -2
98 -1 107 21 14 29 57 29 87 1 22 -20 33 -21 232 -22 115 0 214 3 220 7 8 5 5
16 -10 36 -18 24 -19 32 -8 45 10 11 10 22 3 38 -7 14 -7 30 -2 39 5 9 4 28
-3 46 -9 24 -9 42 1 81 20 80 -19 117 -94 90 -31 -11 -32 -14 -24 -43 10 -36
0 -188 -13 -197 -5 -3 -100 -7 -211 -8 -226 -2 -262 4 -255 44 3 14 -1 30 -9
37 -11 9 -14 40 -12 147 3 130 4 137 28 164 23 26 70 57 86 57 3 0 5 -11 5
-25 0 -18 5 -25 19 -25 14 0 17 6 14 24 -3 15 1 25 12 30 23 9 35 -1 35 -29 0
-14 7 -26 19 -30 32 -10 57 -44 45 -63 -8 -12 -5 -25 13 -51 31 -46 31 -46 26
-16 -5 22 -1 26 26 31 36 8 36 26 0 34 -13 3 -25 14 -27 23 -5 25 18 49 41 43
13 -3 17 0 13 11 -3 8 -6 17 -6 19 0 2 -7 4 -15 4 -8 0 -15 5 -15 11 0 5 10 9
23 7 18 -2 22 2 22 22 0 19 -6 26 -25 28 -38 5 -45 18 -26 47 11 17 23 24 33
21 9 -4 13 -1 11 6 -3 7 -17 14 -31 16 -24 3 -27 8 -27 41 0 21 -3 53 -6 70
-6 31 -7 31 -21 11 -8 -11 -30 -27 -49 -35 -29 -12 -34 -18 -29 -38 4 -14 1
-28 -7 -34 -25 -20 -110 -22 -165 -5 -47 15 -70 32 -43 32 21 0 9 37 -16 49
-32 14 -27 34 11 41 40 7 45 30 6 30 -17 0 -32 5 -32 10 -5 29 -2 35 21 40 18
4 26 15 31 39 4 19 13 37 21 42 7 5 70 9 141 9 127 0 128 0 137 25 8 22 13 24
31 15 15 -9 24 -8 35 0 20 17 43 5 55 -29 8 -21 18 -31 37 -33 51 -6 57 -111
7 -124 -30 -7 -32 -20 -6 -29 10 -3 24 -19 31 -35 11 -26 18 -30 51 -30 45 0
57 22 39 75 -9 28 -17 35 -37 35 -31 0 -26 20 10 38 18 9 28 24 33 47 10 55
-17 145 -44 145 -8 0 -23 7 -33 16 -15 13 -25 14 -78 3 -48 -10 -73 -10 -119
-1 -67 14 -96 15 -106 5z m-241 -153 c3 -5 1 -10 -4 -10 -6 0 -11 5 -11 10 0
6 2 10 4 10 3 0 8 -4 11 -10z m285 -235 c0 -8 -4 -15 -9 -15 -13 0 -22 16 -14
24 11 11 23 6 23 -9z m-197 -78 c3 -8 1 -20 -4 -28 -11 -19 -34 3 -26 25 8 20
23 21 30 3z m64 5 c10 -6 10 -12 -1 -28 -11 -15 -17 -16 -27 -7 -6 6 -9 19 -6
27 7 18 16 20 34 8z m73 -16 c0 -8 -7 -17 -16 -20 -23 -9 -24 -8 -24 14 0 13
7 20 20 20 11 0 20 -6 20 -14z m60 -7 c0 -11 -4 -17 -10 -14 -5 3 -10 13 -10
21 0 8 5 14 10 14 6 0 10 -9 10 -21z m-202 -98 c3 -8 -1 -12 -9 -9 -7 2 -15
10 -17 17 -3 8 1 12 9 9 7 -2 15 -10 17 -17z m-78 -71 c0 -5 -4 -10 -10 -10
-5 0 -10 5 -10 10 0 6 5 10 10 10 6 0 10 -4 10 -10z m20 -160 c0 -5 -9 -10
-21 -10 -11 0 -17 5 -14 10 3 6 13 10 21 10 8 0 14 -4 14 -10z m570 -90 c0
-21 -24 -28 -35 -10 -8 14 3 30 21 30 8 0 14 -9 14 -20z m-510 -150 c0 -5 -4
-10 -10 -10 -5 0 -10 5 -10 10 0 6 5 10 10 10 6 0 10 -4 10 -10z m293 4 c9
-10 -4 -34 -19 -34 -8 0 -14 9 -14 20 0 19 19 27 33 14z m-223 -8 c0 -3 -4 -8
-10 -11 -5 -3 -10 -1 -10 4 0 6 5 11 10 11 6 0 10 -2 10 -4z m75 -6 c3 -5 -1
-10 -9 -10 -9 0 -16 5 -16 10 0 6 4 10 9 10 6 0 13 -4 16 -10z m215 -4 c0 -3
-4 -8 -10 -11 -5 -3 -10 -1 -10 4 0 6 5 11 10 11 6 0 10 -2 10 -4z"/>
<path d="M4314 2933 c-7 -32 -51 -83 -71 -83 -15 0 -17 16 -3 25 6 3 10 13 10
21 0 10 -5 12 -17 5 -69 -35 -174 -35 -196 -1 -10 17 -12 16 -29 -4 -15 -18
-19 -19 -28 -6 -5 8 -7 23 -4 33 5 15 -2 17 -44 17 -27 0 -51 -2 -54 -5 -9
-10 7 -68 20 -73 8 -2 11 7 10 30 -3 30 0 33 25 36 27 3 29 2 22 -27 -6 -30 9
-76 24 -67 4 3 32 1 62 -3 43 -7 57 -6 71 6 27 24 50 9 46 -29 -2 -26 -7 -33
-23 -31 -19 1 -19 1 -2 -11 9 -7 17 -21 17 -31 0 -13 -5 -16 -25 -11 -22 6
-25 3 -25 -23 0 -23 5 -30 22 -33 29 -4 38 -38 10 -38 -27 0 -35 -49 -36 -215
l-1 -130 -27 -3 c-24 -3 -28 -8 -28 -35 0 -18 -7 -42 -15 -54 -14 -20 -14 -20
-71 -2 -32 11 -59 19 -61 19 -7 0 -3 -50 7 -74 9 -24 14 -26 77 -26 65 0 116
16 165 52 15 10 22 8 46 -15 34 -33 72 -36 79 -6 4 14 11 18 22 13 9 -3 35
-12 59 -20 41 -13 43 -12 54 11 25 56 -19 115 -103 135 -30 7 -69 18 -86 26
-30 12 -32 15 -23 40 10 26 10 26 -25 20 -27 -5 -37 -3 -41 9 -8 21 14 45 42
45 28 0 40 16 25 34 -7 8 -9 37 -5 77 7 81 7 89 -1 116 -5 16 0 27 19 44 32
28 33 36 4 35 -16 -1 -22 4 -19 14 6 21 5 41 -3 70 -3 14 -2 32 4 40 8 13 11
13 26 -2 15 -14 16 -22 6 -43 -10 -21 -9 -30 2 -46 10 -14 16 -17 21 -9 4 7 2
17 -3 22 -8 8 -6 20 4 41 12 23 21 28 40 24 13 -2 27 0 30 5 3 5 19 6 35 3 15
-4 36 -2 46 4 16 10 16 10 -4 11 -42 0 -53 11 -53 50 0 47 -17 62 -26 23z
m-184 -353 c0 -5 -5 -10 -11 -10 -5 0 -7 5 -4 10 3 6 8 10 11 10 2 0 4 -4 4
-10z m26 -251 c10 -17 -13 -36 -27 -22 -12 12 -4 33 11 33 5 0 12 -5 16 -11z
m144 -68 c0 -13 -26 -32 -33 -24 -14 13 -6 33 13 33 11 0 20 -4 20 -9z m-56
-23 c12 -45 7 -50 -24 -28 -18 13 -27 26 -23 35 8 23 40 18 47 -7z m-164 -29
c0 -24 -23 -21 -28 4 -2 10 3 17 12 17 10 0 16 -9 16 -21z m-60 -53 c0 -3 -4
-8 -10 -11 -5 -3 -10 -1 -10 4 0 6 5 11 10 11 6 0 10 -2 10 -4z"/>
<path d="M4457 2953 c-11 -10 -8 -43 3 -43 20 0 10 -17 -17 -30 l-28 -13 35
-9 c19 -6 41 -15 48 -20 21 -18 21 -5 0 60 -19 59 -27 70 -41 55z"/>
<path d="M6570 2941 c0 -47 -89 -73 -152 -45 -40 18 -41 18 -59 -4 -17 -22
-17 -24 4 -60 l22 -37 9 27 c9 24 14 27 55 25 50 -2 61 -10 61 -44 0 -16 8
-24 28 -29 47 -10 49 -12 56 -41 4 -15 23 -42 44 -60 28 -24 34 -35 25 -44
-14 -14 -33 -4 -33 19 -1 14 -5 12 -21 -7 l-20 -25 35 -18 c40 -20 44 -29 20
-49 -10 -8 -14 -22 -11 -38 3 -14 -2 -35 -10 -48 -9 -13 -14 -25 -12 -26 2 -1
13 -7 24 -13 11 -6 21 -23 23 -38 3 -22 0 -26 -23 -26 -26 0 -29 -3 -40 -53
-4 -19 -15 -31 -35 -38 -21 -8 -30 -18 -32 -37 -3 -26 -6 -27 -65 -30 -67 -3
-74 -10 -61 -59 l9 -33 72 0 c42 0 78 5 85 12 8 8 15 8 24 1 7 -6 31 -14 53
-17 34 -6 44 -3 60 14 17 19 19 19 37 4 17 -16 19 -16 39 2 20 18 22 18 34 1
21 -28 152 -20 141 9 -3 8 4 18 14 24 27 14 25 24 -5 38 -31 14 -32 45 -2 61
20 11 19 11 -11 6 -18 -2 -50 1 -71 9 -26 9 -45 10 -56 3 -12 -6 -21 -5 -31 5
-20 19 -34 155 -34 324 0 202 -8 264 -34 274 -12 4 -39 24 -61 44 -46 41 -95
50 -95 17z m80 -22 c0 -6 -4 -7 -10 -4 -5 3 -10 11 -10 16 0 6 5 7 10 4 6 -3
10 -11 10 -16z m-11 -88 c-3 -6 -10 -7 -18 -2 -7 5 -10 14 -6 21 9 14 29 -2
24 -19z m95 10 c9 -14 -4 -41 -19 -41 -21 0 -28 19 -15 35 14 17 26 19 34 6z
m-76 -109 c2 -13 -2 -22 -10 -22 -20 0 -37 20 -31 37 8 21 38 11 41 -15z m77
-12 c0 -22 -29 -18 -33 3 -3 14 1 18 15 15 10 -2 18 -10 18 -18z m2 -67 c2 -6
-3 -13 -12 -16 -10 -5 -15 0 -15 14 0 21 21 22 27 2z m13 -98 c0 -8 -4 -15 -9
-15 -13 0 -22 16 -14 24 11 11 23 6 23 -9z m148 -319 c6 -29 -15 -43 -35 -24
-14 14 -14 20 -3 33 16 19 34 15 38 -9z m-313 4 c11 -17 -5 -32 -21 -19 -8 6
-14 15 -14 20 0 12 27 11 35 -1z m223 -22 c-2 -13 -7 -23 -13 -23 -5 0 -11 10
-13 23 -2 15 2 22 13 22 11 0 15 -7 13 -22z"/>
<path d="M7705 2950 c-4 -6 -16 -8 -27 -4 -11 3 -31 0 -44 -6 -19 -11 -26 -10
-40 1 -14 11 -17 11 -25 -4 -6 -10 -22 -17 -40 -17 -55 0 -26 -24 41 -35 35
-5 65 -15 67 -20 2 -6 -1 -40 -6 -75 -7 -52 -6 -67 5 -73 21 -12 17 -26 -16
-64 -29 -32 -30 -37 -30 -130 0 -92 -1 -98 -27 -126 -17 -17 -21 -26 -11 -22
9 4 26 1 38 -5 33 -18 55 6 40 45 -11 29 -2 44 27 45 6 0 15 21 18 48 3 26 10
67 15 92 5 26 5 51 -1 61 -14 27 -11 36 16 43 16 4 27 15 30 31 3 14 7 37 10
51 5 21 1 27 -25 37 -16 6 -30 17 -30 23 0 15 45 27 70 19 20 -6 80 19 80 34
0 19 -49 53 -68 47 -11 -4 -23 -2 -27 4 -3 5 -12 10 -20 10 -8 0 -17 -5 -20
-10z m-59 -341 c3 -6 2 -15 -3 -20 -13 -13 -43 -1 -43 17 0 16 36 19 46 3z
m12 -97 c2 -14 -2 -22 -12 -22 -19 0 -29 17 -22 36 8 22 30 12 34 -14z"/>
<path d="M7083 2921 c-66 -8 -75 -18 -40 -45 15 -12 27 -32 27 -44 0 -16 6
-22 23 -22 39 0 51 -17 67 -97 12 -65 19 -80 40 -90 20 -10 25 -21 27 -50 3
-77 17 -118 41 -121 27 -4 28 -23 2 -47 -26 -23 -25 -29 5 -43 16 -7 23 -17
19 -27 -9 -23 37 -195 61 -224 11 -14 27 -51 34 -81 7 -30 15 -62 17 -71 3 -9
15 -20 27 -23 l22 -6 -23 -18 c-25 -19 -19 -31 21 -45 9 -4 17 -15 17 -26 0
-23 16 -36 25 -22 3 6 12 8 20 5 7 -3 18 4 24 15 13 24 41 176 41 223 0 76 8
109 29 129 17 16 21 28 16 52 -12 59 -15 64 -50 74 -39 12 -45 5 -45 -56 0
-21 -3 -41 -7 -45 -4 -3 -7 -21 -7 -39 -1 -30 -3 -32 -36 -32 -30 0 -35 4 -44
32 -5 18 -17 35 -27 38 -9 3 -29 15 -44 26 -21 17 -23 24 -14 35 9 11 9 21 1
39 -13 29 -7 51 16 60 15 6 15 8 -3 21 -18 13 -37 64 -51 140 -4 17 -15 34
-27 40 -15 6 -24 21 -28 49 -4 22 -12 64 -18 94 -24 116 -10 169 42 156 14 -4
28 -2 31 4 4 6 18 11 32 11 13 0 24 4 24 9 0 16 -210 32 -287 22z m55 -69 c2
-7 -6 -12 -17 -12 -21 0 -27 11 -14 24 9 9 26 2 31 -12z m90 -170 c3 -19 -1
-23 -15 -20 -10 2 -19 14 -21 26 -3 19 1 23 15 20 10 -2 19 -14 21 -26z m62
-162 c0 -11 -7 -20 -15 -20 -15 0 -21 21 -8 33 12 13 23 7 23 -13z m295 -260
c3 -5 1 -10 -4 -10 -6 0 -11 5 -11 10 0 6 2 10 4 10 3 0 8 -4 11 -10z m-209
-81 c10 -17 -13 -36 -27 -22 -12 12 -4 33 11 33 5 0 12 -5 16 -11z m89 -89 c3
-5 1 -10 -4 -10 -6 0 -11 5 -11 10 0 6 2 10 4 10 3 0 8 -4 11 -10z"/>
<path d="M4575 2778 c-2 -7 -5 -22 -7 -32 -4 -27 -36 -45 -47 -28 -6 11 -10
10 -15 -4 -9 -24 11 -34 45 -22 21 7 31 20 39 46 5 21 10 40 10 45 0 12 -20 8
-25 -5z"/>
</g>
</svg>
